<?xml version="1.0" standalone="no"?>
<!DOCTYPE svg PUBLIC "-//W3C//DTD SVG 20010904//EN"
 "http://www.w3.org/TR/2001/REC-SVG-20010904/DTD/svg10.dtd">
<svg version="1.0" xmlns="http://www.w3.org/2000/svg"
 width="256.000000pt" height="256.000000pt" viewBox="0 0 256.000000 256.000000"
 preserveAspectRatio="xMidYMid meet">
<metadata>
Created by potrace 1.11, written by Peter Selinger 2001-2013
</metadata>
<g transform="translate(0.000000,256.000000) scale(0.100000,-0.100000)"
fill="#000000" stroke="none">
<path d="M1512 2094 c-105 -31 -185 -64 -292 -122 -67 -36 -97 -46 -140 -48
-73 -3 -159 -18 -220 -36 -231 -72 -377 -156 -520 -298 -96 -95 -108 -110
-164 -195 -64 -97 -96 -166 -86 -185 11 -20 92 -57 161 -73 27 -7 49 -14 49
-17 0 -3 -33 -21 -72 -40 -62 -30 -73 -39 -76 -63 -6 -50 102 -172 234 -264
77 -53 244 -137 294 -148 8 -2 40 -10 70 -19 30 -8 72 -18 94 -22 21 -3 47 -7
57 -9 9 -2 52 -31 94 -65 87 -68 135 -96 183 -103 43 -7 72 20 73 68 1 19 3
40 4 45 1 6 3 21 4 34 1 20 8 25 47 31 25 3 55 8 66 10 11 3 32 -2 47 -9 136
-69 365 -110 415 -73 27 20 25 45 -11 151 -18 55 -33 102 -33 105 0 4 19 26
41 51 23 25 58 70 79 100 48 70 79 98 120 110 51 15 88 -9 228 -144 204 -199
223 -201 177 -16 -51 207 -48 399 11 625 13 50 27 165 21 171 -4 4 -58 -45
-120 -108 -116 -120 -179 -165 -238 -172 -61 -6 -84 10 -168 122 -72 97 -158
191 -220 240 l-24 19 23 129 c34 194 34 187 12 214 -28 35 -111 36 -220 4z"/>
</g>
</svg>
